<?xml version="1.0" encoding="UTF-8" standalone="no"?>
<!DOCTYPE svg PUBLIC "-//W3C//DTD SVG 1.1//EN" "http://www.w3.org/Graphics/SVG/1.1/DTD/svg11.dtd">
<!-- Generated by graphviz version 2.40.1 (20161225.0304)
 -->
<!-- Title: pipeline Pages: 1 -->
<svg width="564pt" height="854pt" viewBox="0.00 0.00 564.00 854.00" xmlns="http://www.w3.org/2000/svg" xmlns:xlink="http://www.w3.org/1999/xlink">
<g id="graph0" class="graph" transform="scale(1 1) rotate(0) translate(4 850)">
<title>pipeline</title>
<polygon fill="#ffffff" stroke="transparent" points="-4,4 -4,-850 560,-850 560,4 -4,4"/>
<!-- n33 -->
<g id="node1" class="node">
<title>n33</title>
<g id="a_node1"><a xlink:href="/job/2020-12-01/115949-git-clone-df2fc4" xlink:title="clone\nhttps://github.com/ocaml/opam-repository\nmaster" target="_top">
<polygon fill="#ffff00" stroke="#000000" points="299,-449.5 0,-449.5 0,-396.5 299,-396.5 299,-449.5"/>
<text text-anchor="middle" x="149.5" y="-434.3" font-family="Times,serif" font-size="14.00" fill="#000000">clone</text>
<text text-anchor="middle" x="149.5" y="-419.3" font-family="Times,serif" font-size="14.00" fill="#000000">https://github.com/ocaml/opam-repository</text>
<text text-anchor="middle" x="149.5" y="-404.3" font-family="Times,serif" font-size="14.00" fill="#000000">master</text>
</a>
</g>
</g>
<!-- n31 -->
<g id="node2" class="node">
<title>n31</title>
<polygon fill="#d3d3d3" stroke="#000000" points="457,-846 344,-846 344,-810 457,-810 457,-846"/>
<text text-anchor="middle" x="400.5" y="-824.3" font-family="Times,serif" font-size="14.00" fill="#000000">ubuntu-20.10</text>
</g>
<!-- n33&#45;&gt;n31 -->
<g id="edge32" class="edge">
<title>n33-&gt;n31</title>
<path fill="none" stroke="#000000" d="M155.6317,-449.8303C172.4733,-517.7858 225.636,-698.546 335,-801 336.122,-802.0511 337.2906,-803.064 338.4986,-804.0398"/>
<polygon fill="#000000" stroke="#000000" points="336.7639,-807.0974 346.966,-809.9554 340.7729,-801.3591 336.7639,-807.0974"/>
</g>
<!-- n35 -->
<g id="node4" class="node">
<title>n35</title>
<polygon fill="#d3d3d3" stroke="#000000" points="457,-792 344,-792 344,-756 457,-756 457,-792"/>
<text text-anchor="middle" x="400.5" y="-770.3" font-family="Times,serif" font-size="14.00" fill="#000000">ubuntu-20.04</text>
</g>
<!-- n33&#45;&gt;n35 -->
<g id="edge30" class="edge">
<title>n33-&gt;n35</title>
<path fill="none" stroke="#000000" d="M157.9555,-449.5314C178.5918,-510.3129 237.1313,-661.0056 335,-747 336.3022,-748.1442 337.6596,-749.2443 339.0621,-750.3016"/>
<polygon fill="#000000" stroke="#000000" points="337.2476,-753.2978 347.5181,-755.8993 341.1115,-747.4609 337.2476,-753.2978"/>
</g>
<!-- n37 -->
<g id="node6" class="node">
<title>n37</title>
<polygon fill="#d3d3d3" stroke="#000000" points="457,-738 344,-738 344,-702 457,-702 457,-738"/>
<text text-anchor="middle" x="400.5" y="-716.3" font-family="Times,serif" font-size="14.00" fill="#000000">ubuntu-18.04</text>
</g>
<!-- n33&#45;&gt;n37 -->
<g id="edge28" class="edge">
<title>n33-&gt;n37</title>
<path fill="none" stroke="#000000" d="M161.3881,-449.8078C186.2715,-503.1133 248.7605,-623.2747 335,-693 336.5423,-694.247 338.1502,-695.444 339.8093,-696.5923"/>
<polygon fill="#000000" stroke="#000000" points="338.1169,-699.6608 348.4648,-701.9353 341.7939,-693.7043 338.1169,-699.6608"/>
</g>
<!-- n39 -->
<g id="node8" class="node">
<title>n39</title>
<polygon fill="#d3d3d3" stroke="#000000" points="457,-684 344,-684 344,-648 457,-648 457,-684"/>
<text text-anchor="middle" x="400.5" y="-662.3" font-family="Times,serif" font-size="14.00" fill="#000000">ubuntu-16.04</text>
</g>
<!-- n33&#45;&gt;n39 -->
<g id="edge26" class="edge">
<title>n33-&gt;n39</title>
<path fill="none" stroke="#000000" d="M166.3394,-449.8113C195.6432,-494.5466 260.0979,-584.8334 335,-639 336.8625,-640.3469 338.8022,-641.6411 340.7977,-642.883"/>
<polygon fill="#000000" stroke="#000000" points="339.4121,-646.1202 349.8398,-647.9951 342.8573,-640.0267 339.4121,-646.1202"/>
</g>
<!-- n41 -->
<g id="node10" class="node">
<title>n41</title>
<polygon fill="#d3d3d3" stroke="#000000" points="460,-630 341,-630 341,-594 460,-594 460,-630"/>
<text text-anchor="middle" x="400.5" y="-608.3" font-family="Times,serif" font-size="14.00" fill="#000000">opensuse-15.2</text>
</g>
<!-- n33&#45;&gt;n41 -->
<g id="edge24" class="edge">
<title>n33-&gt;n41</title>
<path fill="none" stroke="#000000" d="M174.3545,-449.5607C208.0587,-484.3693 271.3839,-545.6076 335,-585 337.4509,-586.5177 340.0021,-587.9837 342.6146,-589.395"/>
<polygon fill="#000000" stroke="#000000" points="341.1734,-592.5882 351.6768,-593.977 344.3319,-586.3413 341.1734,-592.5882"/>
</g>
<!-- n43 -->
<g id="node12" class="node">
<title>n43</title>
<polygon fill="#d3d3d3" stroke="#000000" points="455.5,-576 345.5,-576 345.5,-540 455.5,-540 455.5,-576"/>
<text text-anchor="middle" x="400.5" y="-554.3" font-family="Times,serif" font-size="14.00" fill="#000000">oraclelinux-8</text>
</g>
<!-- n33&#45;&gt;n43 -->
<g id="edge22" class="edge">
<title>n33-&gt;n43</title>
<path fill="none" stroke="#000000" d="M191.3288,-449.5622C228.347,-472.5306 284.2222,-505.8982 335,-531 338.2803,-532.6216 341.6827,-534.2309 345.1346,-535.8089"/>
<polygon fill="#000000" stroke="#000000" points="343.778,-539.0361 354.3376,-539.8998 346.6214,-532.6396 343.778,-539.0361"/>
</g>
<!-- n45 -->
<g id="node14" class="node">
<title>n45</title>
<polygon fill="#d3d3d3" stroke="#000000" points="455.5,-522 345.5,-522 345.5,-486 455.5,-486 455.5,-522"/>
<text text-anchor="middle" x="400.5" y="-500.3" font-family="Times,serif" font-size="14.00" fill="#000000">oraclelinux-7</text>
</g>
<!-- n33&#45;&gt;n45 -->
<g id="edge20" class="edge">
<title>n33-&gt;n45</title>
<path fill="none" stroke="#000000" d="M231.6868,-449.5224C265.5044,-460.4357 304.1045,-472.8923 335.8509,-483.1371"/>
<polygon fill="#000000" stroke="#000000" points="334.8787,-486.5011 345.4703,-486.2414 337.0285,-479.8394 334.8787,-486.5011"/>
</g>
<!-- n47 -->
<g id="node16" class="node">
<title>n47</title>
<polygon fill="#d3d3d3" stroke="#000000" points="443,-468 358,-468 358,-432 443,-432 443,-468"/>
<text text-anchor="middle" x="400.5" y="-446.3" font-family="Times,serif" font-size="14.00" fill="#000000">fedora-33</text>
</g>
<!-- n33&#45;&gt;n47 -->
<g id="edge18" class="edge">
<title>n33-&gt;n47</title>
<path fill="none" stroke="#000000" d="M299.1322,-439.0959C316.3663,-440.9498 332.9695,-442.7358 347.5747,-444.3068"/>
<polygon fill="#000000" stroke="#000000" points="347.5199,-447.8211 357.8369,-445.4107 348.2686,-440.8612 347.5199,-447.8211"/>
</g>
<!-- n49 -->
<g id="node18" class="node">
<title>n49</title>
<polygon fill="#d3d3d3" stroke="#000000" points="443,-414 358,-414 358,-378 443,-378 443,-414"/>
<text text-anchor="middle" x="400.5" y="-392.3" font-family="Times,serif" font-size="14.00" fill="#000000">fedora-32</text>
</g>
<!-- n33&#45;&gt;n49 -->
<g id="edge16" class="edge">
<title>n33-&gt;n49</title>
<path fill="none" stroke="#000000" d="M299.1322,-406.9041C316.3663,-405.0502 332.9695,-403.2642 347.5747,-401.6932"/>
<polygon fill="#000000" stroke="#000000" points="348.2686,-405.1388 357.8369,-400.5893 347.5199,-398.1789 348.2686,-405.1388"/>
</g>
<!-- n51 -->
<g id="node20" class="node">
<title>n51</title>
<polygon fill="#d3d3d3" stroke="#000000" points="466,-360 335,-360 335,-324 466,-324 466,-360"/>
<text text-anchor="middle" x="400.5" y="-338.3" font-family="Times,serif" font-size="14.00" fill="#000000">debian-unstable</text>
</g>
<!-- n33&#45;&gt;n51 -->
<g id="edge14" class="edge">
<title>n33-&gt;n51</title>
<path fill="none" stroke="#000000" d="M231.6868,-396.4776C265.2452,-385.648 303.5132,-373.2985 335.1199,-363.0988"/>
<polygon fill="#000000" stroke="#000000" points="336.2606,-366.4084 344.7024,-360.0064 334.1108,-359.7467 336.2606,-366.4084"/>
</g>
<!-- n53 -->
<g id="node22" class="node">
<title>n53</title>
<polygon fill="#d3d3d3" stroke="#000000" points="460,-306 341,-306 341,-270 460,-270 460,-306"/>
<text text-anchor="middle" x="400.5" y="-284.3" font-family="Times,serif" font-size="14.00" fill="#000000">debian-testing</text>
</g>
<!-- n33&#45;&gt;n53 -->
<g id="edge12" class="edge">
<title>n33-&gt;n53</title>
<path fill="none" stroke="#000000" d="M191.3288,-396.4378C228.347,-373.4694 284.2222,-340.1018 335,-315 338.2803,-313.3784 341.6827,-311.7691 345.1346,-310.1911"/>
<polygon fill="#000000" stroke="#000000" points="346.6214,-313.3604 354.3376,-306.1002 343.778,-306.9639 346.6214,-313.3604"/>
</g>
<!-- n55 -->
<g id="node24" class="node">
<title>n55</title>
<polygon fill="#d3d3d3" stroke="#000000" points="444,-252 357,-252 357,-216 444,-216 444,-252"/>
<text text-anchor="middle" x="400.5" y="-230.3" font-family="Times,serif" font-size="14.00" fill="#000000">debian-10</text>
</g>
<!-- n33&#45;&gt;n55 -->
<g id="edge10" class="edge">
<title>n33-&gt;n55</title>
<path fill="none" stroke="#000000" d="M174.3545,-396.4393C208.0587,-361.6307 271.3839,-300.3924 335,-261 339.0358,-258.5009 343.3435,-256.1417 347.7493,-253.937"/>
<polygon fill="#000000" stroke="#000000" points="349.3232,-257.0644 356.8748,-249.6331 346.3373,-250.7332 349.3232,-257.0644"/>
</g>
<!-- n57 -->
<g id="node26" class="node">
<title>n57</title>
<polygon fill="#d3d3d3" stroke="#000000" points="439,-198 362,-198 362,-162 439,-162 439,-198"/>
<text text-anchor="middle" x="400.5" y="-176.3" font-family="Times,serif" font-size="14.00" fill="#000000">centos-8</text>
</g>
<!-- n33&#45;&gt;n57 -->
<g id="edge8" class="edge">
<title>n33-&gt;n57</title>
<path fill="none" stroke="#000000" d="M166.3394,-396.1887C195.6432,-351.4534 260.0979,-261.1666 335,-207 340.4241,-203.0775 346.5021,-199.6025 352.7109,-196.5621"/>
<polygon fill="#000000" stroke="#000000" points="354.1819,-199.7382 361.8402,-192.4169 351.2878,-193.3644 354.1819,-199.7382"/>
</g>
<!-- n59 -->
<g id="node28" class="node">
<title>n59</title>
<polygon fill="#d3d3d3" stroke="#000000" points="439,-144 362,-144 362,-108 439,-108 439,-144"/>
<text text-anchor="middle" x="400.5" y="-122.3" font-family="Times,serif" font-size="14.00" fill="#000000">centos-7</text>
</g>
<!-- n33&#45;&gt;n59 -->
<g id="edge6" class="edge">
<title>n33-&gt;n59</title>
<path fill="none" stroke="#000000" d="M161.3881,-396.1922C186.2715,-342.8867 248.7605,-222.7253 335,-153 340.2695,-148.7395 346.3046,-145.0623 352.5317,-141.9147"/>
<polygon fill="#000000" stroke="#000000" points="354.1099,-145.0412 361.7256,-137.6757 351.1789,-138.6844 354.1099,-145.0412"/>
</g>
<!-- n61 -->
<g id="node30" class="node">
<title>n61</title>
<polygon fill="#d3d3d3" stroke="#000000" points="442.5,-90 358.5,-90 358.5,-54 442.5,-54 442.5,-90"/>
<text text-anchor="middle" x="400.5" y="-68.3" font-family="Times,serif" font-size="14.00" fill="#000000">archlinux</text>
</g>
<!-- n33&#45;&gt;n61 -->
<g id="edge4" class="edge">
<title>n33-&gt;n61</title>
<path fill="none" stroke="#000000" d="M157.9555,-396.4686C178.5918,-335.6871 237.1313,-184.9944 335,-99 339.2156,-95.2959 344.0091,-92.0544 349.0405,-89.2285"/>
<polygon fill="#000000" stroke="#000000" points="350.9203,-92.2008 358.2808,-84.5801 347.7745,-85.9475 350.9203,-92.2008"/>
</g>
<!-- n63 -->
<g id="node32" class="node">
<title>n63</title>
<polygon fill="#d3d3d3" stroke="#000000" points="448.5,-36 352.5,-36 352.5,0 448.5,0 448.5,-36"/>
<text text-anchor="middle" x="400.5" y="-14.3" font-family="Times,serif" font-size="14.00" fill="#000000">alpine-3.12</text>
</g>
<!-- n33&#45;&gt;n63 -->
<g id="edge2" class="edge">
<title>n33-&gt;n63</title>
<path fill="none" stroke="#000000" d="M155.6317,-396.1697C172.4733,-328.2142 225.636,-147.454 335,-45 337.5919,-42.5719 340.4324,-40.348 343.4324,-38.3132"/>
<polygon fill="#000000" stroke="#000000" points="345.4374,-41.1928 352.2357,-33.0667 341.8537,-35.1797 345.4374,-41.1928"/>
</g>
<!-- n30 -->
<g id="node3" class="node">
<title>n30</title>
<g id="a_node3"><a xlink:href="/?distro=ubuntu-20.10&amp;" xlink:title="+" target="_top">
<polygon fill="#d3d3d3" stroke="#000000" points="556,-846 502,-846 502,-810 556,-810 556,-846"/>
<text text-anchor="middle" x="529" y="-824.3" font-family="Times,serif" font-size="14.00" fill="#000000">+</text>
</a>
</g>
</g>
<!-- n31&#45;&gt;n30 -->
<g id="edge31" class="edge">
<title>n31-&gt;n30</title>
<path fill="none" stroke="#000000" d="M457.236,-828C468.8337,-828 480.7626,-828 491.483,-828"/>
<polygon fill="#000000" stroke="#000000" points="491.7436,-831.5001 501.7435,-828 491.7435,-824.5001 491.7436,-831.5001"/>
</g>
<!-- n34 -->
<g id="node5" class="node">
<title>n34</title>
<g id="a_node5"><a xlink:href="/?distro=ubuntu-20.04&amp;" xlink:title="+" target="_top">
<polygon fill="#d3d3d3" stroke="#000000" points="556,-792 502,-792 502,-756 556,-756 556,-792"/>
<text text-anchor="middle" x="529" y="-770.3" font-family="Times,serif" font-size="14.00" fill="#000000">+</text>
</a>
</g>
</g>
<!-- n35&#45;&gt;n34 -->
<g id="edge29" class="edge">
<title>n35-&gt;n34</title>
<path fill="none" stroke="#000000" d="M457.236,-774C468.8337,-774 480.7626,-774 491.483,-774"/>
<polygon fill="#000000" stroke="#000000" points="491.7436,-777.5001 501.7435,-774 491.7435,-770.5001 491.7436,-777.5001"/>
</g>
<!-- n36 -->
<g id="node7" class="node">
<title>n36</title>
<g id="a_node7"><a xlink:href="/?distro=ubuntu-18.04&amp;" xlink:title="+" target="_top">
<polygon fill="#d3d3d3" stroke="#000000" points="556,-738 502,-738 502,-702 556,-702 556,-738"/>
<text text-anchor="middle" x="529" y="-716.3" font-family="Times,serif" font-size="14.00" fill="#000000">+</text>
</a>
</g>
</g>
<!-- n37&#45;&gt;n36 -->
<g id="edge27" class="edge">
<title>n37-&gt;n36</title>
<path fill="none" stroke="#000000" d="M457.236,-720C468.8337,-720 480.7626,-720 491.483,-720"/>
<polygon fill="#000000" stroke="#000000" points="491.7436,-723.5001 501.7435,-720 491.7435,-716.5001 491.7436,-723.5001"/>
</g>
<!-- n38 -->
<g id="node9" class="node">
<title>n38</title>
<g id="a_node9"><a xlink:href="/?distro=ubuntu-16.04&amp;" xlink:title="+" target="_top">
<polygon fill="#d3d3d3" stroke="#000000" points="556,-684 502,-684 502,-648 556,-648 556,-684"/>
<text text-anchor="middle" x="529" y="-662.3" font-family="Times,serif" font-size="14.00" fill="#000000">+</text>
</a>
</g>
</g>
<!-- n39&#45;&gt;n38 -->
<g id="edge25" class="edge">
<title>n39-&gt;n38</title>
<path fill="none" stroke="#000000" d="M457.236,-666C468.8337,-666 480.7626,-666 491.483,-666"/>
<polygon fill="#000000" stroke="#000000" points="491.7436,-669.5001 501.7435,-666 491.7435,-662.5001 491.7436,-669.5001"/>
</g>
<!-- n40 -->
<g id="node11" class="node">
<title>n40</title>
<g id="a_node11"><a xlink:href="/?distro=opensuse-15.2&amp;" xlink:title="+" target="_top">
<polygon fill="#d3d3d3" stroke="#000000" points="556,-630 502,-630 502,-594 556,-594 556,-630"/>
<text text-anchor="middle" x="529" y="-608.3" font-family="Times,serif" font-size="14.00" fill="#000000">+</text>
</a>
</g>
</g>
<!-- n41&#45;&gt;n40 -->
<g id="edge23" class="edge">
<title>n41-&gt;n40</title>
<path fill="none" stroke="#000000" d="M460.2357,-612C470.921,-612 481.7735,-612 491.6034,-612"/>
<polygon fill="#000000" stroke="#000000" points="491.8123,-615.5001 501.8123,-612 491.8122,-608.5001 491.8123,-615.5001"/>
</g>
<!-- n42 -->
<g id="node13" class="node">
<title>n42</title>
<g id="a_node13"><a xlink:href="/?distro=oraclelinux-8&amp;" xlink:title="+" target="_top">
<polygon fill="#d3d3d3" stroke="#000000" points="556,-576 502,-576 502,-540 556,-540 556,-576"/>
<text text-anchor="middle" x="529" y="-554.3" font-family="Times,serif" font-size="14.00" fill="#000000">+</text>
</a>
</g>
</g>
<!-- n43&#45;&gt;n42 -->
<g id="edge21" class="edge">
<title>n43-&gt;n42</title>
<path fill="none" stroke="#000000" d="M455.7413,-558C467.8037,-558 480.2984,-558 491.4789,-558"/>
<polygon fill="#000000" stroke="#000000" points="491.7387,-561.5001 501.7386,-558 491.7386,-554.5001 491.7387,-561.5001"/>
</g>
<!-- n44 -->
<g id="node15" class="node">
<title>n44</title>
<g id="a_node15"><a xlink:href="/?distro=oraclelinux-7&amp;" xlink:title="+" target="_top">
<polygon fill="#d3d3d3" stroke="#000000" points="556,-522 502,-522 502,-486 556,-486 556,-522"/>
<text text-anchor="middle" x="529" y="-500.3" font-family="Times,serif" font-size="14.00" fill="#000000">+</text>
</a>
</g>
</g>
<!-- n45&#45;&gt;n44 -->
<g id="edge19" class="edge">
<title>n45-&gt;n44</title>
<path fill="none" stroke="#000000" d="M455.7413,-504C467.8037,-504 480.2984,-504 491.4789,-504"/>
<polygon fill="#000000" stroke="#000000" points="491.7387,-507.5001 501.7386,-504 491.7386,-500.5001 491.7387,-507.5001"/>
</g>
<!-- n46 -->
<g id="node17" class="node">
<title>n46</title>
<g id="a_node17"><a xlink:href="/?distro=fedora-33&amp;" xlink:title="+" target="_top">
<polygon fill="#d3d3d3" stroke="#000000" points="556,-468 502,-468 502,-432 556,-432 556,-468"/>
<text text-anchor="middle" x="529" y="-446.3" font-family="Times,serif" font-size="14.00" fill="#000000">+</text>
</a>
</g>
</g>
<!-- n47&#45;&gt;n46 -->
<g id="edge17" class="edge">
<title>n47-&gt;n46</title>
<path fill="none" stroke="#000000" d="M443.2886,-450C458.9491,-450 476.5315,-450 491.6767,-450"/>
<polygon fill="#000000" stroke="#000000" points="491.719,-453.5001 501.719,-450 491.7189,-446.5001 491.719,-453.5001"/>
</g>
<!-- n48 -->
<g id="node19" class="node">
<title>n48</title>
<g id="a_node19"><a xlink:href="/?distro=fedora-32&amp;" xlink:title="+" target="_top">
<polygon fill="#d3d3d3" stroke="#000000" points="556,-414 502,-414 502,-378 556,-378 556,-414"/>
<text text-anchor="middle" x="529" y="-392.3" font-family="Times,serif" font-size="14.00" fill="#000000">+</text>
</a>
</g>
</g>
<!-- n49&#45;&gt;n48 -->
<g id="edge15" class="edge">
<title>n49-&gt;n48</title>
<path fill="none" stroke="#000000" d="M443.2886,-396C458.9491,-396 476.5315,-396 491.6767,-396"/>
<polygon fill="#000000" stroke="#000000" points="491.719,-399.5001 501.719,-396 491.7189,-392.5001 491.719,-399.5001"/>
</g>
<!-- n50 -->
<g id="node21" class="node">
<title>n50</title>
<g id="a_node21"><a xlink:href="/?distro=debian-unstable&amp;" xlink:title="+" target="_top">
<polygon fill="#d3d3d3" stroke="#000000" points="556,-360 502,-360 502,-324 556,-324 556,-360"/>
<text text-anchor="middle" x="529" y="-338.3" font-family="Times,serif" font-size="14.00" fill="#000000">+</text>
</a>
</g>
</g>
<!-- n51&#45;&gt;n50 -->
<g id="edge13" class="edge">
<title>n51-&gt;n50</title>
<path fill="none" stroke="#000000" d="M466.2557,-342C475.0144,-342 483.7357,-342 491.7682,-342"/>
<polygon fill="#000000" stroke="#000000" points="491.8761,-345.5001 501.8761,-342 491.876,-338.5001 491.8761,-345.5001"/>
</g>
<!-- n52 -->
<g id="node23" class="node">
<title>n52</title>
<g id="a_node23"><a xlink:href="/?distro=debian-testing&amp;" xlink:title="+" target="_top">
<polygon fill="#d3d3d3" stroke="#000000" points="556,-306 502,-306 502,-270 556,-270 556,-306"/>
<text text-anchor="middle" x="529" y="-284.3" font-family="Times,serif" font-size="14.00" fill="#000000">+</text>
</a>
</g>
</g>
<!-- n53&#45;&gt;n52 -->
<g id="edge11" class="edge">
<title>n53-&gt;n52</title>
<path fill="none" stroke="#000000" d="M460.2357,-288C470.921,-288 481.7735,-288 491.6034,-288"/>
<polygon fill="#000000" stroke="#000000" points="491.8123,-291.5001 501.8123,-288 491.8122,-284.5001 491.8123,-291.5001"/>
</g>
<!-- n54 -->
<g id="node25" class="node">
<title>n54</title>
<g id="a_node25"><a xlink:href="/?distro=debian-10&amp;" xlink:title="+" target="_top">
<polygon fill="#d3d3d3" stroke="#000000" points="556,-252 502,-252 502,-216 556,-216 556,-252"/>
<text text-anchor="middle" x="529" y="-230.3" font-family="Times,serif" font-size="14.00" fill="#000000">+</text>
</a>
</g>
</g>
<!-- n55&#45;&gt;n54 -->
<g id="edge9" class="edge">
<title>n55-&gt;n54</title>
<path fill="none" stroke="#000000" d="M444.0042,-234C459.3547,-234 476.475,-234 491.3048,-234"/>
<polygon fill="#000000" stroke="#000000" points="491.6404,-237.5001 501.6403,-234 491.6403,-230.5001 491.6404,-237.5001"/>
</g>
<!-- n56 -->
<g id="node27" class="node">
<title>n56</title>
<g id="a_node27"><a xlink:href="/?distro=centos-8&amp;" xlink:title="+" target="_top">
<polygon fill="#d3d3d3" stroke="#000000" points="556,-198 502,-198 502,-162 556,-162 556,-198"/>
<text text-anchor="middle" x="529" y="-176.3" font-family="Times,serif" font-size="14.00" fill="#000000">+</text>
</a>
</g>
</g>
<!-- n57&#45;&gt;n56 -->
<g id="edge7" class="edge">
<title>n57-&gt;n56</title>
<path fill="none" stroke="#000000" d="M439.0542,-180C455.6704,-180 475.0318,-180 491.5259,-180"/>
<polygon fill="#000000" stroke="#000000" points="491.8932,-183.5001 501.8932,-180 491.8932,-176.5001 491.8932,-183.5001"/>
</g>
<!-- n58 -->
<g id="node29" class="node">
<title>n58</title>
<g id="a_node29"><a xlink:href="/?distro=centos-7&amp;" xlink:title="+" target="_top">
<polygon fill="#d3d3d3" stroke="#000000" points="556,-144 502,-144 502,-108 556,-108 556,-144"/>
<text text-anchor="middle" x="529" y="-122.3" font-family="Times,serif" font-size="14.00" fill="#000000">+</text>
</a>
</g>
</g>
<!-- n59&#45;&gt;n58 -->
<g id="edge5" class="edge">
<title>n59-&gt;n58</title>
<path fill="none" stroke="#000000" d="M439.0542,-126C455.6704,-126 475.0318,-126 491.5259,-126"/>
<polygon fill="#000000" stroke="#000000" points="491.8932,-129.5001 501.8932,-126 491.8932,-122.5001 491.8932,-129.5001"/>
</g>
<!-- n60 -->
<g id="node31" class="node">
<title>n60</title>
<g id="a_node31"><a xlink:href="/?distro=archlinux&amp;" xlink:title="+" target="_top">
<polygon fill="#d3d3d3" stroke="#000000" points="556,-90 502,-90 502,-54 556,-54 556,-90"/>
<text text-anchor="middle" x="529" y="-68.3" font-family="Times,serif" font-size="14.00" fill="#000000">+</text>
</a>
</g>
</g>
<!-- n61&#45;&gt;n60 -->
<g id="edge3" class="edge">
<title>n61-&gt;n60</title>
<path fill="none" stroke="#000000" d="M442.5757,-72C458.3951,-72 476.2586,-72 491.6217,-72"/>
<polygon fill="#000000" stroke="#000000" points="491.8025,-75.5001 501.8025,-72 491.8024,-68.5001 491.8025,-75.5001"/>
</g>
<!-- n62 -->
<g id="node33" class="node">
<title>n62</title>
<g id="a_node33"><a xlink:href="/?distro=alpine-3.12&amp;" xlink:title="+" target="_top">
<polygon fill="#d3d3d3" stroke="#000000" points="556,-36 502,-36 502,0 556,0 556,-36"/>
<text text-anchor="middle" x="529" y="-14.3" font-family="Times,serif" font-size="14.00" fill="#000000">+</text>
</a>
</g>
</g>
<!-- n63&#45;&gt;n62 -->
<g id="edge1" class="edge">
<title>n63-&gt;n62</title>
<path fill="none" stroke="#000000" d="M448.7143,-18C462.875,-18 478.1461,-18 491.5291,-18"/>
<polygon fill="#000000" stroke="#000000" points="491.8,-21.5001 501.8,-18 491.8,-14.5001 491.8,-21.5001"/>
</g>
</g>
</svg>